<?xml version="1.0" encoding="UTF-8"?>
<!-- Generated by Pixelmator Pro 3.6.18 -->
<svg width="800" height="800" viewBox="0 0 800 800" xmlns="http://www.w3.org/2000/svg">
    <path id="Path" fill="#ff0000" stroke="none" d="M 457.549988 592 L 457.73999 591.460022 C 457.630005 591.640015 457.5 591.809998 457.400024 592 Z"/>
    <path id="path1" fill="#97d5c9" stroke="none" d="M 356.399994 632.929993 C 356.890228 635.12616 357.535156 637.284851 358.329987 639.390015 L 356.329987 632.75 C 356.358307 632.807922 356.381714 632.868164 356.399994 632.929993 Z"/>
    <path id="path2" fill="#f77172" stroke="none" d="M 372 686.419983 C 371.866302 685.403809 371.648895 684.400391 371.350006 683.419983 L 282.73999 384.059998 C 282.059998 381.77002 281.230011 379.27002 279.209991 377.98999 C 277.619995 376.98999 275.619995 376.98999 273.730011 376.98999 L 183.829987 376.98999 L 142.480011 376.98999 L 121.799988 376.98999 C 119.730011 376.98999 115.470001 375.98999 114.309998 378.049988 C 113.309998 379.919983 114.589996 382.840027 115.619995 384.429993 C 135.850006 415.51001 171.51001 435.98999 208.549988 437.809998 C 211.339996 437.940002 214.73999 438.359985 215.850006 440.929993 C 216.230988 442.072632 216.333832 443.289673 216.149994 444.47998 C 213.929993 478.47998 232.619995 512.890015 262.279999 529.549988 C 276.190002 537.359985 292.549988 541.789978 303.399994 553.48999 C 304.454987 554.440613 305.174133 555.70697 305.450012 557.099976 C 305.609985 558.76001 304.609985 560.280029 303.709991 561.679993 C 293.243286 578.482605 292.384857 599.551636 301.450012 617.150024 C 305.450012 624.75 311.209991 631.289978 316.890015 637.73999 L 361.720001 688.73999 C 363.869995 691.190002 367.140015 693.859985 369.98999 692.27002 C 372 691.159973 372.289978 688.799988 372 686.419983 Z"/>
    <path id="path3" fill="#7b0100" stroke="none" d="M 685.710022 378.090027 C 684.549988 376 680.289978 377.030029 678.219971 377.030029 L 657.539978 377.030029 L 616.190002 377.030029 L 526.289978 377.030029 C 524.400024 377.030029 522.400024 377.030029 520.809998 378.030029 C 518.809998 379.309998 517.960022 381.809998 517.280029 384.099976 C 487.76001 483.873332 458.223328 583.656677 428.669983 683.450012 C 428.369629 684.429443 428.155457 685.433228 428.030029 686.450012 C 427.73999 688.830017 428.030029 691.190002 430.030029 692.289978 C 432.869995 693.880005 436.140015 691.210022 438.289978 688.76001 C 453.243306 671.779989 468.186646 654.779989 483.119995 637.76001 C 488.799988 631.309998 494.530029 624.76001 498.559998 617.169983 C 507.625122 599.571655 506.766724 578.502563 496.299988 561.700012 C 495.409973 560.299988 494.400024 558.780029 494.559998 557.119995 C 494.822266 555.733337 495.523438 554.467712 496.559998 553.51001 C 507.409973 541.809998 523.77002 537.380005 537.679993 529.570007 C 567.340027 512.909973 586.030029 478.450012 583.809998 444.5 C 583.62616 443.309631 583.729004 442.09259 584.109985 440.950012 C 585.219971 438.380005 588.619995 437.950012 591.419983 437.830017 C 628.419983 436.01001 664.109985 415.530029 684.340027 384.450012 C 685.429993 382.880005 686.73999 380 685.710022 378.090027 Z"/>
    <path id="path4" fill="#8f0100" stroke="none" d="M 493.179993 356.52002 L 407.700012 267.859985 L 400.27002 260.150024 C 399.303589 259.146912 397.962585 258.592407 396.570007 258.619995 C 395.183105 258.634949 393.864746 259.225342 392.929993 260.25 L 386 267.859985 L 305 356.630005 C 303.684753 358.068359 303.347076 360.149536 304.140015 361.929993 C 304.955841 363.723877 306.749329 364.871277 308.720001 364.859985 L 489.570007 364.859985 C 491.564453 364.866943 493.372253 363.687988 494.169983 361.859985 C 494.944092 360.042908 494.554016 357.938843 493.179993 356.52002 Z"/>
    <path id="path5" fill="#5a6e7f" stroke="none" d="M 255.350006 362.709961 L 254.75 364.450012 L 255.440002 362.719971 Z"/>
    <path id="path6" fill="#5a6e7f" stroke="none" d="M 254.75 364.450012 C 254.700012 364.589966 254.649994 364.719971 254.589996 364.859985 L 254.589996 364.859985 Z"/>
    <path id="path7" fill="#ff0000" stroke="none" d="M 377.450012 253.839966 C 376.792542 252.404785 375.48761 251.371277 373.940002 251.059998 L 331.230011 251.059998 C 319.178589 251.376892 307.392365 254.667847 296.920013 260.640015 C 291.743958 257.482544 285.82193 255.75708 279.76001 255.640015 C 270.420044 255.353027 261.1651 253.77124 252.26001 250.940002 C 227.899994 243.420044 204.100006 227.309998 187.149994 205.940002 C 172.149994 187.02002 165.149994 166.799988 168.290009 151.849976 C 170.243042 142.196899 173.730621 132.919312 178.619995 124.369995 L 199.440002 81.650024 C 199.440002 81.650024 141.190002 96.890015 118.26001 176.829956 C 106.649994 217.309998 119.540009 256.469971 143.440002 287.829956 C 157.657532 306.277405 175.132263 321.966064 195 334.119995 C 183.313721 331.675415 171.409149 330.425659 159.470001 330.390015 C 147.15094 330.369751 134.873688 331.823364 122.899994 334.719971 C 114.95929 336.676514 108.435013 342.31604 105.350006 349.890015 C 103.419357 354.644775 102.949371 359.866943 104 364.890015 L 212.820007 364.890015 C 212.820007 364.890015 239.26001 364.780029 239.459991 364.890015 L 265.160004 364.890015 C 267.161682 364.904968 268.97937 363.724609 269.779999 361.890015 C 269.863159 361.65564 269.926697 361.414856 269.970001 361.170044 C 270.410767 359.526489 269.963654 357.772095 268.790009 356.540039 L 262.470001 350 L 261.130005 348.609985 L 248.410004 335.410034 L 231.649994 318 C 200.559998 304.599976 179.929993 282.219971 166.799988 262.170044 C 151.899994 239.410034 146.619995 219.709961 146.619995 219.709961 C 167.410004 259.709961 196.899994 279.880005 223.230011 289.940002 L 253.420013 323.48999 L 255.579987 325.890015 L 265.829987 337.280029 L 265.829987 337.280029 L 273.589996 345.900024 L 281.720001 354.900024 C 281.840088 355.027222 281.97052 355.144287 282.109985 355.25 C 283.020386 356.08252 284.20639 356.549072 285.440002 356.559998 C 286.858246 356.570313 288.214111 355.977783 289.170013 354.929993 L 368.649994 267.829956 L 376.650024 259.119995 C 377.943909 257.676147 378.258118 255.602295 377.450012 253.839966 Z"/>
    <path id="path8" fill="#f40000" stroke="none" d="M 416.929993 253.839966 C 417.598572 252.409546 418.903503 251.378906 420.450012 251.059998 L 463.159973 251.059998 C 475.211426 251.376892 486.99762 254.667847 497.469971 260.640015 C 502.646057 257.482544 508.568054 255.75708 514.630005 255.640015 C 523.969971 255.353027 533.224915 253.77124 542.130005 250.940002 C 566.47998 243.420044 590.280029 227.309998 607.23999 205.940002 C 622.23999 187.02002 629.23999 166.799988 626.099976 151.849976 C 624.142456 142.198242 620.655151 132.921265 615.77002 124.369995 L 595 81.589966 C 595 81.589966 653.25 96.830017 676.179993 176.77002 C 687.780029 217.25 674.890015 256.410034 651 287.77002 C 636.777039 306.246216 619.288086 321.959167 599.400024 334.130005 C 611.082886 331.685425 622.984131 330.435669 634.919983 330.400024 C 647.239075 330.379028 659.516418 331.832764 671.48999 334.72998 C 679.413452 336.695801 685.92041 342.329468 689 349.890015 C 690.925903 354.645874 691.395752 359.866699 690.349976 364.890015 L 581.570007 364.890015 C 581.570007 364.890015 555.119995 364.780029 554.929993 364.890015 L 529.22998 364.890015 C 527.228333 364.904968 525.410645 363.724609 524.609985 361.890015 C 524.526855 361.65564 524.463318 361.414856 524.419983 361.170044 C 523.975159 359.526489 524.422791 357.770081 525.599976 356.540039 L 531.919983 350 L 533.25 348.609985 L 546 335.390015 L 562.73999 318 C 593.830017 304.599976 614.460022 282.219971 627.590027 262.170044 C 642.48999 239.410034 647.77002 219.709961 647.77002 219.709961 C 626.969971 259.709961 597.48999 279.880005 571.150024 289.940002 L 541 323.48999 L 538.840027 325.890015 L 528.599976 337.280029 L 528.599976 337.280029 L 520.830017 345.900024 L 512.710022 354.900024 C 512.589905 355.027222 512.459473 355.144287 512.320007 355.25 C 511.409607 356.08252 510.223572 356.549072 508.98999 356.559998 C 507.571777 356.570313 506.215881 355.977783 505.26001 354.929993 L 425.77002 267.829956 L 417.77002 259.119995 C 416.467468 257.682434 416.137878 255.61084 416.929993 253.839966 Z"/>
    <path id="path9" fill="#cc0000" stroke="none" d="M 435.789978 561.900024 C 414.369995 570.219971 387.960022 570.22998 366.5 561.900024 C 361.556793 559.9729 356.377167 558.718323 351.100006 558.169983 L 361.619995 593.679993 L 366 608.390015 L 374.820007 638.150024 L 378.820007 651.590027 L 382.98999 665.669983 L 388.75 685.119995 L 397.549988 714.849976 C 398.175903 716.996399 400.150696 718.46637 402.386475 718.450134 C 404.622192 718.433838 406.575378 716.935303 407.169983 714.780029 L 415.47998 684.719971 L 420.890015 665 L 424.549988 651.76001 L 428.289978 638.23999 L 436.380005 609 L 440.549988 593.900024 L 450.400024 558.289978 C 445.395874 558.864746 440.485962 560.077942 435.789978 561.900024 Z"/>
    <path id="path10" fill="#cc0000" stroke="none" d="M 497.780029 379.590027 C 496.813477 378.365662 495.339844 377.65094 493.780029 377.650024 L 304.320007 377.650024 C 302.749512 377.663879 301.273376 378.401917 300.320007 379.650024 C 299.375336 380.889648 299.078217 382.505371 299.519989 384 L 307.790009 411.929993 L 314.440002 434.359985 L 320.640015 455.299988 L 325.190002 470.679993 L 332.649994 495.849976 L 346.890015 543.960022 L 347.75 543.960022 C 351.800385 544.081116 355.832397 544.556274 359.799988 545.380005 L 360.149994 545.460022 C 364.044952 546.276428 367.867432 547.406799 371.579987 548.840027 C 390.669373 555.893005 411.650635 555.893005 430.73999 548.840027 C 434.449646 547.408325 438.268677 546.278015 442.159973 545.460022 L 442.51001 545.380005 C 444.569987 544.953328 446.633321 544.619995 448.700012 544.380005 C 450.580017 544.159973 452.469971 544.039978 454.349976 543.969971 L 469.219971 490.190002 L 474.340027 471.669983 L 478.75 455.73999 L 484 436.869995 L 489.789978 415.869995 L 498.640015 383.869995 C 499.02417 382.386902 498.707214 380.80957 497.780029 379.590027 Z"/>
</svg>
