<?xml version="1.0" encoding="UTF-8"?>
<!-- Generated by Pixelmator Pro 3.6.18 -->
<svg width="645" height="645" viewBox="0 0 645 645" xmlns="http://www.w3.org/2000/svg">
    <path id="Path" fill="#ff0000" stroke="none" d="M 379.549988 515 L 379.73999 514.460022 C 379.630005 514.640015 379.5 514.809998 379.400024 515 Z"/>
    <path id="path1" fill="#97d5c9" stroke="none" d="M 278.399994 555.929993 C 278.890228 558.12616 279.535156 560.284851 280.329987 562.390015 L 278.329987 555.75 C 278.358307 555.807922 278.381714 555.868164 278.399994 555.929993 Z"/>
    <path id="path2" fill="#f77172" stroke="none" d="M 294 609.419983 C 293.866302 608.403809 293.648895 607.400391 293.350006 606.419983 L 204.73999 307.059998 C 204.059998 304.77002 203.230011 302.27002 201.209991 300.98999 C 199.619995 299.98999 197.619995 299.98999 195.730011 299.98999 L 105.829987 299.98999 L 64.480011 299.98999 L 43.799988 299.98999 C 41.730011 299.98999 37.470001 298.98999 36.309998 301.049988 C 35.309998 302.919983 36.589996 305.840027 37.619995 307.429993 C 57.850006 338.51001 93.51001 358.98999 130.549988 360.809998 C 133.339996 360.940002 136.73999 361.359985 137.850006 363.929993 C 138.230988 365.072632 138.333832 366.289673 138.149994 367.47998 C 135.929993 401.47998 154.619995 435.890015 184.279999 452.549988 C 198.190002 460.359985 214.549988 464.789978 225.399994 476.48999 C 226.454987 477.440613 227.174133 478.70697 227.450012 480.099976 C 227.609985 481.76001 226.609985 483.280029 225.709991 484.679993 C 215.243286 501.482605 214.384857 522.551636 223.450012 540.150024 C 227.450012 547.75 233.209991 554.289978 238.890015 560.73999 L 283.720001 611.73999 C 285.869995 614.190002 289.140015 616.859985 291.98999 615.27002 C 294 614.159973 294.289978 611.799988 294 609.419983 Z"/>
    <path id="path3" fill="#7b0100" stroke="none" d="M 607.710022 301.090027 C 606.549988 299 602.289978 300.030029 600.219971 300.030029 L 579.539978 300.030029 L 538.190002 300.030029 L 448.289978 300.030029 C 446.400024 300.030029 444.400024 300.030029 442.809998 301.030029 C 440.809998 302.309998 439.960022 304.809998 439.280029 307.099976 C 409.76001 406.873332 380.223328 506.656677 350.669983 606.450012 C 350.369629 607.429443 350.155457 608.433228 350.030029 609.450012 C 349.73999 611.830017 350.030029 614.190002 352.030029 615.289978 C 354.869995 616.880005 358.140015 614.210022 360.289978 611.76001 C 375.243306 594.779989 390.186646 577.779989 405.119995 560.76001 C 410.799988 554.309998 416.530029 547.76001 420.559998 540.169983 C 429.625122 522.571655 428.766724 501.502563 418.299988 484.700012 C 417.409973 483.299988 416.400024 481.780029 416.559998 480.119995 C 416.822266 478.733337 417.523438 477.467712 418.559998 476.51001 C 429.409973 464.809998 445.77002 460.380005 459.679993 452.570007 C 489.340027 435.909973 508.030029 401.450012 505.809998 367.5 C 505.62616 366.309631 505.729004 365.09259 506.109985 363.950012 C 507.219971 361.380005 510.619995 360.950012 513.419983 360.830017 C 550.419983 359.01001 586.109985 338.530029 606.340027 307.450012 C 607.429993 305.880005 608.73999 303 607.710022 301.090027 Z"/>
    <path id="path4" fill="#8f0100" stroke="none" d="M 415.179993 279.52002 L 329.700012 190.859985 L 322.27002 183.150024 C 321.303589 182.146912 319.962585 181.592407 318.570007 181.619995 C 317.183105 181.634949 315.864746 182.225342 314.929993 183.25 L 308 190.859985 L 227 279.630005 C 225.684753 281.068359 225.347076 283.149536 226.140015 284.929993 C 226.955841 286.723877 228.749329 287.871277 230.720001 287.859985 L 411.570007 287.859985 C 413.564453 287.866943 415.372253 286.687988 416.169983 284.859985 C 416.944092 283.042908 416.554016 280.938843 415.179993 279.52002 Z"/>
    <path id="path5" fill="#5a6e7f" stroke="none" d="M 177.350006 285.709961 L 176.75 287.450012 L 177.440002 285.719971 Z"/>
    <path id="path6" fill="#5a6e7f" stroke="none" d="M 176.75 287.450012 C 176.700012 287.589966 176.649994 287.719971 176.589996 287.859985 L 176.589996 287.859985 Z"/>
    <path id="path7" fill="#ff0000" stroke="none" d="M 299.450012 176.839966 C 298.792542 175.404785 297.48761 174.371277 295.940002 174.059998 L 253.230011 174.059998 C 241.178589 174.376892 229.392365 177.667847 218.920013 183.640015 C 213.743958 180.482544 207.82193 178.75708 201.76001 178.640015 C 192.420044 178.353027 183.1651 176.77124 174.26001 173.940002 C 149.899994 166.420044 126.100006 150.309998 109.149994 128.940002 C 94.149994 110.02002 87.149994 89.799988 90.290009 74.849976 C 92.243042 65.196899 95.730621 55.919312 100.619995 47.369995 L 121.440002 4.650024 C 121.440002 4.650024 63.190002 19.890015 40.26001 99.829956 C 28.649994 140.309998 41.540009 179.469971 65.440002 210.829956 C 79.657532 229.277405 97.132263 244.966064 117 257.119995 C 105.313721 254.675415 93.409149 253.425659 81.470001 253.390015 C 69.15094 253.369751 56.873688 254.823364 44.899994 257.719971 C 36.95929 259.676514 30.435013 265.31604 27.350006 272.890015 C 25.419357 277.644775 24.949371 282.866943 26 287.890015 L 134.820007 287.890015 C 134.820007 287.890015 161.26001 287.780029 161.459991 287.890015 L 187.160004 287.890015 C 189.161682 287.904968 190.97937 286.724609 191.779999 284.890015 C 191.863159 284.65564 191.926697 284.414856 191.970001 284.170044 C 192.410767 282.526489 191.963654 280.772095 190.790009 279.540039 L 184.470001 273 L 183.130005 271.609985 L 170.410004 258.410034 L 153.649994 241 C 122.559998 227.599976 101.929993 205.219971 88.799988 185.170044 C 73.899994 162.410034 68.619995 142.709961 68.619995 142.709961 C 89.410004 182.709961 118.899994 202.880005 145.230011 212.940002 L 175.420013 246.48999 L 177.579987 248.890015 L 187.829987 260.280029 L 187.829987 260.280029 L 195.589996 268.900024 L 203.720001 277.900024 C 203.840088 278.027222 203.97052 278.144287 204.109985 278.25 C 205.020386 279.08252 206.20639 279.549072 207.440002 279.559998 C 208.858246 279.570313 210.214111 278.977783 211.170013 277.929993 L 290.649994 190.829956 L 298.650024 182.119995 C 299.943909 180.676147 300.258118 178.602295 299.450012 176.839966 Z"/>
    <path id="path8" fill="#f40000" stroke="none" d="M 338.929993 176.839966 C 339.598572 175.409546 340.903503 174.378906 342.450012 174.059998 L 385.159973 174.059998 C 397.211426 174.376892 408.99762 177.667847 419.469971 183.640015 C 424.646057 180.482544 430.568054 178.75708 436.630005 178.640015 C 445.969971 178.353027 455.224915 176.77124 464.130005 173.940002 C 488.47998 166.420044 512.280029 150.309998 529.23999 128.940002 C 544.23999 110.02002 551.23999 89.799988 548.099976 74.849976 C 546.142456 65.198242 542.655151 55.921265 537.77002 47.369995 L 517 4.589966 C 517 4.589966 575.25 19.830017 598.179993 99.77002 C 609.780029 140.25 596.890015 179.410034 573 210.77002 C 558.777039 229.246216 541.288086 244.959167 521.400024 257.130005 C 533.082886 254.685425 544.984131 253.435669 556.919983 253.400024 C 569.239075 253.379028 581.516418 254.832764 593.48999 257.72998 C 601.413452 259.695801 607.92041 265.329468 611 272.890015 C 612.925903 277.645874 613.395752 282.866699 612.349976 287.890015 L 503.570007 287.890015 C 503.570007 287.890015 477.119995 287.780029 476.929993 287.890015 L 451.22998 287.890015 C 449.228333 287.904968 447.410645 286.724609 446.609985 284.890015 C 446.526855 284.65564 446.463318 284.414856 446.419983 284.170044 C 445.975159 282.526489 446.422791 280.770081 447.599976 279.540039 L 453.919983 273 L 455.25 271.609985 L 468 258.390015 L 484.73999 241 C 515.830017 227.599976 536.460022 205.219971 549.590027 185.170044 C 564.48999 162.410034 569.77002 142.709961 569.77002 142.709961 C 548.969971 182.709961 519.48999 202.880005 493.150024 212.940002 L 463 246.48999 L 460.840027 248.890015 L 450.599976 260.280029 L 450.599976 260.280029 L 442.830017 268.900024 L 434.710022 277.900024 C 434.589905 278.027222 434.459473 278.144287 434.320007 278.25 C 433.409607 279.08252 432.223572 279.549072 430.98999 279.559998 C 429.571777 279.570313 428.215881 278.977783 427.26001 277.929993 L 347.77002 190.829956 L 339.77002 182.119995 C 338.467468 180.682434 338.137878 178.61084 338.929993 176.839966 Z"/>
    <path id="path9" fill="#cc0000" stroke="none" d="M 357.789978 484.900024 C 336.369995 493.219971 309.960022 493.22998 288.5 484.900024 C 283.556793 482.9729 278.377167 481.718323 273.100006 481.169983 L 283.619995 516.679993 L 288 531.390015 L 296.820007 561.150024 L 300.820007 574.590027 L 304.98999 588.669983 L 310.75 608.119995 L 319.549988 637.849976 C 320.175903 639.996399 322.150696 641.46637 324.386475 641.450134 C 326.622192 641.433838 328.575378 639.935303 329.169983 637.780029 L 337.47998 607.719971 L 342.890015 588 L 346.549988 574.76001 L 350.289978 561.23999 L 358.380005 532 L 362.549988 516.900024 L 372.400024 481.289978 C 367.395874 481.864746 362.485962 483.077942 357.789978 484.900024 Z"/>
    <path id="path10" fill="#cc0000" stroke="none" d="M 419.780029 302.590027 C 418.813477 301.365662 417.339844 300.65094 415.780029 300.650024 L 226.320007 300.650024 C 224.749512 300.663879 223.273376 301.401917 222.320007 302.650024 C 221.375336 303.889648 221.078217 305.505371 221.519989 307 L 229.790009 334.929993 L 236.440002 357.359985 L 242.640015 378.299988 L 247.190002 393.679993 L 254.649994 418.849976 L 268.890015 466.960022 L 269.75 466.960022 C 273.800385 467.081116 277.832397 467.556274 281.799988 468.380005 L 282.149994 468.460022 C 286.044952 469.276428 289.867432 470.406799 293.579987 471.840027 C 312.669373 478.893005 333.650635 478.893005 352.73999 471.840027 C 356.449646 470.408325 360.268677 469.278015 364.159973 468.460022 L 364.51001 468.380005 C 366.569987 467.953328 368.633321 467.619995 370.700012 467.380005 C 372.580017 467.159973 374.469971 467.039978 376.349976 466.969971 L 391.219971 413.190002 L 396.340027 394.669983 L 400.75 378.73999 L 406 359.869995 L 411.789978 338.869995 L 420.640015 306.869995 C 421.02417 305.386902 420.707214 303.80957 419.780029 302.590027 Z"/>
</svg>
