<?xml version="1.0" encoding="UTF-8"?>
<!-- Generated by Pixelmator Pro 3.6.18 -->
<svg width="610" height="660" viewBox="0 0 610 660" xmlns="http://www.w3.org/2000/svg">
    <path id="Path" fill="#ffffff" stroke="none" d="M 362.549988 522 L 362.73999 521.460022 C 362.630005 521.640015 362.5 521.809998 362.400024 522 Z"/>
    <path id="path1" fill="#e0e0e0" stroke="none" d="M 261.399994 562.929993 C 261.890228 565.12616 262.535156 567.284851 263.329987 569.390015 L 261.329987 562.75 C 261.358307 562.807922 261.381714 562.868164 261.399994 562.929993 Z"/>
    <path id="path2" fill="#e3e3e3" stroke="#000000" stroke-width="5" d="M 277 616.419983 C 276.866302 615.403809 276.648895 614.400391 276.350006 613.419983 L 187.73999 314.059998 C 187.059998 311.77002 186.230011 309.27002 184.209991 307.98999 C 182.619995 306.98999 180.619995 306.98999 178.730011 306.98999 L 88.829987 306.98999 L 47.480011 306.98999 L 26.799988 306.98999 C 24.730011 306.98999 20.470001 305.98999 19.309998 308.049988 C 18.309998 309.919983 19.589996 312.840027 20.619995 314.429993 C 40.850006 345.51001 76.51001 365.98999 113.549988 367.809998 C 116.339996 367.940002 119.73999 368.359985 120.850006 370.929993 C 121.230988 372.072632 121.333832 373.289673 121.149994 374.47998 C 118.929993 408.47998 137.619995 442.890015 167.279999 459.549988 C 181.190002 467.359985 197.549988 471.789978 208.399994 483.48999 C 209.454987 484.440613 210.174133 485.70697 210.450012 487.099976 C 210.609985 488.76001 209.609985 490.280029 208.709991 491.679993 C 198.243286 508.482605 197.384857 529.551636 206.450012 547.150024 C 210.450012 554.75 216.209991 561.289978 221.890015 567.73999 L 266.720001 618.73999 C 268.869995 621.190002 272.140015 623.859985 274.98999 622.27002 C 277 621.159973 277.289978 618.799988 277 616.419983 Z"/>
    <path id="path3" fill="#e3e3e3" stroke="#000000" stroke-width="5" d="M 590.710022 308.090027 C 589.549988 306 585.289978 307.030029 583.219971 307.030029 L 562.539978 307.030029 L 521.190002 307.030029 L 431.289978 307.030029 C 429.400024 307.030029 427.400024 307.030029 425.809998 308.030029 C 423.809998 309.309998 422.960022 311.809998 422.280029 314.099976 C 392.76001 413.873322 363.223328 513.656677 333.669983 613.450012 C 333.369629 614.429443 333.155457 615.433228 333.030029 616.450012 C 332.73999 618.830017 333.030029 621.190002 335.030029 622.289978 C 337.869995 623.880005 341.140015 621.210022 343.289978 618.76001 C 358.243317 601.779968 373.186646 584.779968 388.119995 567.76001 C 393.799988 561.309998 399.530029 554.76001 403.559998 547.169983 C 412.625122 529.571655 411.766724 508.502563 401.299988 491.700012 C 400.409973 490.299988 399.400024 488.780029 399.559998 487.119995 C 399.822266 485.733337 400.523438 484.467712 401.559998 483.51001 C 412.409973 471.809998 428.77002 467.380005 442.679993 459.570007 C 472.340027 442.909973 491.030029 408.450012 488.809998 374.5 C 488.62616 373.309631 488.729004 372.09259 489.109985 370.950012 C 490.219971 368.380005 493.619995 367.950012 496.419983 367.830017 C 533.419983 366.01001 569.109985 345.530029 589.340027 314.450012 C 590.429993 312.880005 591.73999 310 590.710022 308.090027 Z"/>
    <path id="path4" fill="#e3e3e3" stroke="#000000" stroke-width="5" d="M 398.179993 286.52002 L 312.700012 197.859985 L 305.27002 190.150024 C 304.303589 189.146912 302.962585 188.592407 301.570007 188.619995 C 300.183105 188.634949 298.864746 189.225342 297.929993 190.25 L 291 197.859985 L 210 286.630005 C 208.684753 288.068359 208.347076 290.149536 209.140015 291.929993 C 209.955841 293.723877 211.749329 294.871277 213.720001 294.859985 L 394.570007 294.859985 C 396.564453 294.866943 398.372253 293.687988 399.169983 291.859985 C 399.944092 290.042908 399.554016 287.938843 398.179993 286.52002 Z"/>
    <path id="path5" fill="#d0d0d0" stroke="none" d="M 160.350006 292.709961 L 159.75 294.450012 L 160.440002 292.719971 Z"/>
    <path id="path6" fill="#d0d0d0" stroke="none" d="M 159.75 294.450012 C 159.700012 294.589966 159.649994 294.719971 159.589996 294.859985 L 159.589996 294.859985 Z"/>
    <path id="path7" fill="#e3e3e3" stroke="#000000" stroke-width="5" d="M 282.450012 183.839966 C 281.792542 182.404785 280.48761 181.371277 278.940002 181.059998 L 236.230011 181.059998 C 224.178589 181.376892 212.392365 184.667847 201.920013 190.640015 C 196.743958 187.482544 190.82193 185.75708 184.76001 185.640015 C 175.420044 185.353027 166.1651 183.77124 157.26001 180.940002 C 132.899994 173.420044 109.100006 157.309998 92.149994 135.940002 C 77.149994 117.02002 70.149994 96.799988 73.290009 81.849976 C 75.243042 72.196899 78.730621 62.919312 83.619995 54.369995 L 104.440002 11.650024 C 104.440002 11.650024 46.190002 26.890015 23.26001 106.829956 C 11.649994 147.309998 24.540009 186.469971 48.440002 217.829956 C 62.657532 236.277405 80.132263 251.966064 100 264.119995 C 88.313721 261.675415 76.409149 260.425659 64.470001 260.390015 C 52.15094 260.369751 39.873688 261.823364 27.899994 264.719971 C 19.95929 266.676514 13.435013 272.31604 10.350006 279.890015 C 8.419357 284.644775 7.949371 289.866943 9 294.890015 L 117.820007 294.890015 C 117.820007 294.890015 144.26001 294.780029 144.459991 294.890015 L 170.160004 294.890015 C 172.161682 294.904968 173.97937 293.724609 174.779999 291.890015 C 174.863159 291.65564 174.926697 291.414856 174.970001 291.170044 C 175.410767 289.526489 174.963654 287.772095 173.790009 286.540039 L 167.470001 280 L 166.130005 278.609985 L 153.410004 265.410034 L 136.649994 248 C 105.559998 234.599976 84.929993 212.219971 71.799988 192.170044 C 56.899994 169.410034 51.619995 149.709961 51.619995 149.709961 C 72.410004 189.709961 101.899994 209.880005 128.230011 219.940002 L 158.420013 253.48999 L 160.579987 255.890015 L 170.829987 267.280029 L 170.829987 267.280029 L 178.589996 275.900024 L 186.720001 284.900024 C 186.840088 285.027222 186.97052 285.144287 187.109985 285.25 C 188.020386 286.08252 189.20639 286.549072 190.440002 286.559998 C 191.858246 286.570313 193.214111 285.977783 194.170013 284.929993 L 273.649994 197.829956 L 281.650024 189.119995 C 282.943909 187.676147 283.258118 185.602295 282.450012 183.839966 Z"/>
    <path id="path8" fill="#e3e3e3" stroke="#000000" stroke-width="5" stroke-linecap="round" stroke-linejoin="round" d="M 321.929993 183.839966 C 322.598572 182.409546 323.903503 181.378906 325.450012 181.059998 L 368.159973 181.059998 C 380.211426 181.376892 391.99762 184.667847 402.469971 190.640015 C 407.646057 187.482544 413.568054 185.75708 419.630005 185.640015 C 428.969971 185.353027 438.224915 183.77124 447.130005 180.940002 C 471.47998 173.420044 495.280029 157.309998 512.23999 135.940002 C 527.23999 117.02002 534.23999 96.799988 531.099976 81.849976 C 529.142456 72.198242 525.655151 62.921265 520.77002 54.369995 L 500 11.589966 C 500 11.589966 558.25 26.830017 581.179993 106.77002 C 592.780029 147.25 579.890015 186.410034 556 217.77002 C 541.777039 236.246216 524.288086 251.959167 504.400024 264.130005 C 516.082886 261.685425 527.984131 260.435669 539.919983 260.400024 C 552.239075 260.379028 564.516418 261.832764 576.48999 264.72998 C 584.413452 266.695801 590.92041 272.329468 594 279.890015 C 595.925903 284.645874 596.395752 289.866699 595.349976 294.890015 L 486.570007 294.890015 C 486.570007 294.890015 460.119995 294.780029 459.929993 294.890015 L 434.22998 294.890015 C 432.228333 294.904968 430.410645 293.724609 429.609985 291.890015 C 429.526855 291.65564 429.463318 291.414856 429.419983 291.170044 C 428.975159 289.526489 429.422791 287.770081 430.599976 286.540039 L 436.919983 280 L 438.25 278.609985 L 451 265.390015 L 467.73999 248 C 498.830017 234.599976 519.460022 212.219971 532.590027 192.170044 C 547.48999 169.410034 552.77002 149.709961 552.77002 149.709961 C 531.969971 189.709961 502.48999 209.880005 476.150024 219.940002 L 446 253.48999 L 443.840027 255.890015 L 433.599976 267.280029 L 433.599976 267.280029 L 425.830017 275.900024 L 417.710022 284.900024 C 417.589905 285.027222 417.459473 285.144287 417.320007 285.25 C 416.409607 286.08252 415.223572 286.549072 413.98999 286.559998 C 412.571777 286.570313 411.215881 285.977783 410.26001 284.929993 L 330.77002 197.829956 L 322.77002 189.119995 C 321.467468 187.682434 321.137878 185.61084 321.929993 183.839966 Z"/>
    <path id="path9" fill="#e3e3e3" stroke="#000000" stroke-width="5" d="M 340.789978 491.900024 C 319.369995 500.219971 292.960022 500.22998 271.5 491.900024 C 266.556793 489.9729 261.377167 488.718323 256.100006 488.169983 L 266.619995 523.679993 L 271 538.390015 L 279.820007 568.150024 L 283.820007 581.590027 L 287.98999 595.669983 L 293.75 615.119995 L 302.549988 644.849976 C 303.175903 646.996399 305.150696 648.46637 307.386475 648.450134 C 309.622192 648.433838 311.575378 646.935303 312.169983 644.780029 L 320.47998 614.719971 L 325.890015 595 L 329.549988 581.76001 L 333.289978 568.23999 L 341.380005 539 L 345.549988 523.900024 L 355.400024 488.289978 C 350.395874 488.864746 345.485962 490.077942 340.789978 491.900024 Z"/>
    <path id="path10" fill="#e3e3e3" stroke="#000000" stroke-width="5" d="M 402.780029 309.590027 C 401.813477 308.365662 400.339844 307.65094 398.780029 307.650024 L 209.320007 307.650024 C 207.749512 307.663879 206.273376 308.401917 205.320007 309.650024 C 204.375336 310.889648 204.078217 312.505371 204.519989 314 L 212.790009 341.929993 L 219.440002 364.359985 L 225.640015 385.299988 L 230.190002 400.679993 L 237.649994 425.849976 L 251.890015 473.960022 L 252.75 473.960022 C 256.800385 474.081116 260.832397 474.556274 264.799988 475.380005 L 265.149994 475.460022 C 269.044952 476.276428 272.867432 477.406799 276.579987 478.840027 C 295.669373 485.893005 316.650635 485.893005 335.73999 478.840027 C 339.449646 477.408325 343.268677 476.278015 347.159973 475.460022 L 347.51001 475.380005 C 349.569977 474.953339 351.633331 474.619995 353.700012 474.380005 C 355.580017 474.159973 357.469971 474.039978 359.349976 473.969971 L 374.219971 420.190002 L 379.340027 401.669983 L 383.75 385.73999 L 389 366.869995 L 394.789978 345.869995 L 403.640015 313.869995 C 404.02417 312.386902 403.707214 310.80957 402.780029 309.590027 Z"/>
</svg>
